<svg id="Layer_1" data-name="Layer 1" xmlns="http://www.w3.org/2000/svg" viewBox="0 0 584.78 73.78"><defs><style>.cls-1{fill:#444;}</style></defs><path class="cls-1" d="M85.19,52.46c10,4.11,13.19,8.94,12.79,19.21C97.66,80,92.31,86.48,83.41,89.49a42,42,0,0,1-13.2,1.75c-15.82.17-31.64.14-47.46.16-.93,0-2.44.5-2.6-.77C20,89.18,21.55,89.15,22.6,89c2.16-.32,2.85-1.7,2.85-3.64q0-30.42-.06-60.84c0-2.27-1.16-3.28-3.19-3.72-.79-.17-2.22.21-2-1.13.16-1.08,1.48-.77,2.36-.78,2.73,0,5.47,0,8.21,0,14.5,0,29,.12,43.5.08a34.44,34.44,0,0,1,10.64,2.09c7.22,2.31,10.41,8.15,10.69,15S93.11,49.66,85.19,52.46ZM49,68.26c0,2,0,4.31,0,6.64,0,1,.08,1.95,1.31,1.92,5.83-.11,11.78.88,17.36-1.7A7.76,7.76,0,0,0,72.26,67a7.63,7.63,0,0,0-5.66-6.42c-2.93-.72-5.84-1.64-9-1.32-2.7.29-6.21-1.14-7.92.49C47.84,61.56,49.53,65.14,49,68.26ZM57.09,48V48A34.32,34.32,0,0,1,61,48a9.5,9.5,0,0,0,5.78-1.3,7.44,7.44,0,0,0,4.08-7.18c-.25-3.07-1.88-4.89-4.83-5.83-5.16-1.65-10.42-.61-15.63-.84-1.12-.05-1.62.6-1.48,1.76a61.62,61.62,0,0,1,0,11.2c-.11,1.63.51,2.23,2,2.21C53,48,55.06,48,57.09,48Z" transform="translate(-20.13 -18.85)"/><path class="cls-1" d="M191.8,20c1.09-1.48,2.31-1.13,3.35-1.13,8.91,0,17.83,0,26.75,0a13.78,13.78,0,0,1,1.82.1c.5.07,1,.24,1,.89a.78.78,0,0,1-.81.76c-3.93.32-4.17,3.06-4.14,6.1.1,12.16,0,24.32.25,36.48a12.34,12.34,0,0,0,11.35,12.14c7.6.82,13.12-2.53,15.11-9.13a17.32,17.32,0,0,0,.84-5.08c0-12.06-.12-24.12-.09-36.18,0-2.57-.84-4.07-3.53-4.24-.67,0-1.65,0-1.51-1,.12-.84,1-.83,1.75-.83,3.45,0,6.89.05,10.34.05,6.89,0,13.78,0,20.67,0,.87,0,2.23-.31,2.33.79.11,1.28-1.33.88-2.13,1-2.54.51-3.36,2-3.35,4.56.07,12.77.49,25.57-.15,38.31-.67,13.5-8.22,23.7-23,27.17a65.28,65.28,0,0,1-31.28-.13c-9.8-2.46-19-10-21.17-21.75-1.28-7-.76-13.91-1-20.86s-.07-14,0-21C195.25,24.14,195.79,21,191.8,20Z" transform="translate(-20.13 -18.85)"/><path class="cls-1" d="M132.85,20.17c-3.93.5-3.2,2.6-2.09,4.8,2.1,4.18,5,7.89,7.46,11.81.71,1.11,1.54,2.13,2.27,3.23,3.18,4.82,3.18,4.82,6.41-.14,3.08-4.75,6.19-9.47,9.23-14.25,2-3.11,1.78-3.93-.93-5.81,2.08-1.18,30.15-1.26,32.45-.07-7,4.15-9.87,11.68-14.31,17.89-5,7-9.7,14.21-14.55,21.32a11.23,11.23,0,0,0-2,6.55c.05,6.28.05,12.57,0,18.85,0,2.62.45,4.62,3.57,4.94.81.08,2.09.33,1.81,1.54-.21,1-1.38.59-2.13.59-11,0-22.09-.49-33.12.26-.87.06-2,.29-2.22-1s.87-1.56,1.81-1.6c3.16-.14,3.72-2.12,3.69-4.77-.07-5.88-.12-11.76,0-17.64a14,14,0,0,0-2.59-8.52c-7.67-11.3-15.23-22.67-22.89-34a7.52,7.52,0,0,0-5.4-3.58c-.58-.07-1.34-.1-1.18-1,.1-.58.74-.66,1.24-.66,2.53,0,5.06,0,7.6,0,7.5,0,15,0,22.49,0C130.48,19,131.69,18.59,132.85,20.17Z" transform="translate(-20.13 -18.85)"/><path class="cls-1" d="M501.3,19c4.45,0,8.91,0,13.36,0,1,0,2.27-.34,2.56,1,.24,1.08-.86,1.41-1.68,1.84-3.56,1.86-5.92,8.18-4.37,11.8a30.26,30.26,0,0,1,2.36,6.23c.12.61.33,1.23,1.1,1.23s.69-.63.87-1.08c2-5,4-9.95,5.81-15,.56-1.5.93-3.23-1.15-4.15-.49-.22-.88-.62-.67-1.18s.77-.6,1.29-.61q3.48-.07,7-.11c.61,0,1.32.11,1.52.77s-.39,1.16-.95,1.35c-3.39,1.14-4,4.4-5.14,7.06-2.67,6.21-5,12.58-7.41,18.89-.37.94-.63,2.08-2,1.88-1.11-.17-1.59-1.08-2-2.09-1.11-2.92-2.28-5.83-3.46-8.72-.18-.44-.49-1-.84-1.13-.71-.16-1,.56-1.21,1.11-1.25,2.87-2.55,5.72-3.71,8.62-.44,1.1-.82,2.19-2.17,2.17s-1.52-1.3-1.92-2.35c-2.84-7.34-5.12-14.91-8.56-22-.68-1.4-1.39-2.63-3-3.13-.69-.2-1.72-.64-1.39-1.67s1.34-.72,2.12-.73Zm.26,23.46c.93-2.22,1.27-3.76,2.13-4.93,2.7-3.68,1.73-7.08-.39-10.54-1.32-2.17-1.71-5-4.69-5.94-1-.32-1.81-.79-2.77,0a2.15,2.15,0,0,0-.74,2.65C497.19,29.67,499.22,35.64,501.56,42.45Zm6.94-15.92a6.5,6.5,0,0,0,1.37-4.22c.08-1-1-1.49-2-1.29s-1.9.85-1.33,1.86S507,25.65,508.5,26.53Z" transform="translate(-20.13 -18.85)"/><path class="cls-1" d="M441.88,34.14c0-2.63,0-5.27,0-7.9-.05-2.2.22-4.59-2.87-5.17a1.07,1.07,0,0,1-.92-1.34c.24-.63.95-.73,1.56-.73,3.24,0,6.48,0,9.71,0,.59,0,1.3.1,1.38.88.06.61-.57.75-1,1.06-.87.73-2.54.59-2.6,2.22-.09,2.82-.2,5.65-.1,8.47,0,.82,1.12.66,1.8.66,3.75,0,7.5-.05,11.25,0,1.67,0,2.44-.51,2.32-2.26a46.54,46.54,0,0,1,0-4.87c.06-1.86-.2-3.42-2.38-4-.67-.16-1.43-.59-1.26-1.46.14-.67.87-.77,1.49-.78,3.14,0,6.27,0,9.41,0,.61,0,1.31.16,1.44.85S470.59,21,470,21.13c-2.08.62-2.34,2.12-2.33,4,.05,6,0,12-.06,17.93,0,1.91,0,3.77,2.65,3.81a1,1,0,0,1,.95,1,1.13,1.13,0,0,1-1.15,1.18q-5.14.07-10.28,0a1.16,1.16,0,0,1-1.15-1.2,1,1,0,0,1,1-1c2.43-.15,2.82-1.64,2.84-3.75.09-8,.14-8-7.95-8-7.77,0-7.75,0-7.54,7.79.06,1.88,0,3.76,2.68,3.78a1.08,1.08,0,0,1,1.16,1.14A1.24,1.24,0,0,1,449.64,49c-3.53,0-7.05,0-10.57-.09a1.18,1.18,0,0,1-1.16-1.2c0-.74.75-1,1.36-.94,2.35.06,2.54-1.53,2.55-3.25,0-3.14,0-6.28,0-9.42Z" transform="translate(-20.13 -18.85)"/><path class="cls-1" d="M511.48,70.39c1.91-.09,3.51-.25,5.1-.21,1.12,0,1.91.76,1,1.78-4.27,4.64-4.94,11-7.72,16.28-.74,1.41-.5,4-2.69,3.84-1.88-.14-1.93-2.55-2.66-4,0-.09,0-.2-.08-.29-.6-1.22-.5-3.38-2-3.34-1.39,0-1.44,2.16-2.13,3.34-.91,1.56-.76,4.44-3,4.32-1.91-.1-1.94-2.75-2.57-4.4-1.65-4.34-3.26-8.69-4.95-13a5.64,5.64,0,0,0-2.4-2.67,1,1,0,0,1-.57-1.26c.23-.58.8-.55,1.3-.55l19.64,0c.52,0,1,0,1.26.6a1.14,1.14,0,0,1-.4,1.36c-5.32,4.37-3.4,9.22-1.06,14.23C510.69,82.92,513.2,73.34,511.48,70.39ZM497.79,86.77c4-5.58,3.1-12-1.66-14.87-.74-.43-1.41-.82-2.18-.13a1.61,1.61,0,0,0-.59,2.1A108.85,108.85,0,0,1,497.79,86.77Z" transform="translate(-20.13 -18.85)"/><path class="cls-1" d="M330.35,35.42c0,2.63-.18,5.28.07,7.89.16,1.74.53,3.75,3.21,3.46.66-.07,1.6.14,1.59,1s-.89,1.32-1.73,1.37c-3.43.21-6.85-.5-10.3,0a1.46,1.46,0,0,1-1.76-1.3c0-.94.87-1,1.56-1.07,2.11-.23,2.58-1.62,2.56-3.43,0-5.88-.14-11.76-.06-17.63,0-2.38-.45-4.17-3-4.87-.48-.14-1-.3-1-.93a.86.86,0,0,1,1-.85c5.57.54,11.35-1.34,16.7,1.6,2.78,1.52,4.69,3.62,4.67,6.88s-1.83,5.71-4.76,7.2a26.33,26.33,0,0,1-3.88,1.63c-.74.24-1.78.3-2.06-.71-.21-.81.56-1.33,1.22-1.53,4.55-1.36,4-5,3.78-8.44-.2-2.65-3.3-4.49-5.87-3.8-1.15.3-1.24,1.17-1.46,2.05A31,31,0,0,0,330.35,35.42Z" transform="translate(-20.13 -18.85)"/><path class="cls-1" d="M327.82,70.43c-1.73,1.78-1.14,3.54-.31,5.16,1.72,3.33,2.3,7.07,3.82,10.51,3.79-3.71,3.66-8.71-.3-13.35-.5-.59-1.58-1-1.21-1.89.47-1.16,1.58-.34,2.42-.44a53.39,53.39,0,0,1,8.76-.08c.57,0,1.27-.41,1.63.28s-.22,1.14-.6,1.59c-4.82,5.62-4.48,7-.75,14.12,2-3,2.6-6.43,4.05-9.42.77-1.58,1.58-3.3.37-5.19-.67-1,.19-1.43,1.13-1.47,1.2,0,2.42-.09,3.62-.08.38,0,.91,0,1.1.29.41.51-.07.93-.42,1.27-3.93,3.85-4.49,9.33-6.73,14-.74,1.54-1.25,3.2-1.95,4.76-.36.78-.67,1.81-1.9,1.59-1.05-.18-1.41-.91-1.69-1.89a17.79,17.79,0,0,0-1.87-5.1c-.27-.42-.34-1.09-.9-1.11s-1.08.54-1.23,1.16a37.34,37.34,0,0,1-2.4,5.55c-.42,1-1,1.56-2,1.5s-1-1-1.31-1.79c-1.85-5-3.73-10-5.6-15.05a6.19,6.19,0,0,0-2.36-3.07,1.28,1.28,0,0,1-.61-1.58c.3-.69,1-.67,1.58-.54C323.94,70.56,325.75,70.29,327.82,70.43Z" transform="translate(-20.13 -18.85)"/><path class="cls-1" d="M360,49a12.67,12.67,0,0,0-1.51,0c-1.22.14-2.75.51-3.12-1s1.38-1,2.15-1.48a5.64,5.64,0,0,0,2.33-2.71c3-7.17,5.93-14.36,8.21-21.79.43-1.41.71-2.87,2.5-3s1.63,1.54,2,2.57Q376.85,32.3,381,43c.72,1.87,1.4,3.63,3.8,3.78.62,0,1.27.35,1.24,1.09a1.35,1.35,0,0,1-1.48,1.24c-2.62.06-5.26.16-7.87,0-1.22-.08-2.31-1-.76-2.13,1.13-.84.91-1.71.6-2.66-2-6.1-2-6-8.46-6-2.14,0-3.21.82-3.77,2.68-.37,1.25-.61,2.56-1.09,3.77s-.3,1.73.88,2c.65.18,1.61.23,1.46,1.18s-1.11,1.14-1.92,1.19c-1.21.08-2.42,0-3.64,0Zm10-21.82c-1.77,1.19-1.4,3-2,4.41-1.83,3.88-1.75,3.92,2.57,3.89.3,0,.6,0,.9,0,1.24-.05,1.72-.71,1.08-1.77A26.61,26.61,0,0,1,370,27.21Z" transform="translate(-20.13 -18.85)"/><path class="cls-1" d="M560.25,49.07c-.71,0-1.42-.08-2.12-.16-1-.1-2.14.73-2.81-.39-.84-1.42.86-1.5,1.37-2.22a2,2,0,0,0,.3-1.1c0-4.88-6.35-8.86-10.82-6.75-1.87.88-1.62,3.11-2.39,4.69s-1.83,3,1,4c1.42.48.35,1.61-.52,1.8-2.69.59-5.42,0-8.13,0a1,1,0,0,1-.9-1.06,1.08,1.08,0,0,1,1.24-1c2,.08,2.82-1.38,3.43-2.9,2.32-5.81,4.59-11.64,6.87-17.47.73-1.88,1.46-3.76,2.11-5.67.32-.95.72-1.71,1.84-1.67s1.42.86,1.77,1.78c2.9,7.74,5.65,15.54,9.09,23.07.71,1.56,1.46,2.88,3.46,2.87.69,0,1.5.27,1.37,1.23s-.85,1.12-1.58,1.14c-1.52.05-3,0-4.55,0ZM550,27.75a10.82,10.82,0,0,0-2.45,5.3c-.18.82-.82,2.16.27,2.39a16.44,16.44,0,0,0,4.67-.23,1.49,1.49,0,0,0,.11-1.06C551.5,32.23,551.68,29.81,550,27.75Z" transform="translate(-20.13 -18.85)"/><path class="cls-1" d="M409.25,19.06h10.93c1.1,0,2.5-.24,2.63,1.3.16,1.88.81,4-.46,5.59-.82,1-1.51-.1-2-.93-1.37-2.58-5.59-4.06-8.1-2.91-.95.44-1,1.21-1,2q0,10,0,20a2.37,2.37,0,0,0,2.41,2.58c.85.09,2.08,0,1.82,1.38-.17.92-1.11,1.17-2,1.06a57.72,57.72,0,0,0-9.39,0c-.92,0-2-.07-2.1-1.25s.92-1.2,1.71-1.19c1.45,0,1.93-.87,2.18-2a16.2,16.2,0,0,0,.51-3c.06-5.67,0-11.34.08-17,0-2.1-.71-2.88-2.83-2.81-3.08.11-6.23-.15-7.45,3.67-.12.39-.49.76-.91.55a1.6,1.6,0,0,1-.64-.9c-1.23-4,.42-6.23,4.47-6.21,1.72,0,3.44,0,5.17,0h4.86Z" transform="translate(-20.13 -18.85)"/><path class="cls-1" d="M580.12,19c1,0,2,0,3,0,1.76,0,3.41,0,1.51,2.33a1.25,1.25,0,0,0-.08,1.44c1.77,3,3.52,5.92,5.4,8.79.69,1.06,1.42.29,1.87-.42,1.57-2.49,3.08-5,4.64-7.49.63-1,.78-1.83-.44-2.52-.55-.3-1-.81-.63-1.5A1.59,1.59,0,0,1,597,19c2.12,0,4.25,0,6.37.06.63,0,1.34.13,1.5.79.21.92-.58,1.31-1.26,1.4-2.45.29-3.56,2.09-4.7,3.92-2,3.17-4.15,6.25-5.93,9.53s-.94,7.1-.41,10.67c.18,1.25,1.55,1.42,2.71,1.51.63.06,1.25.3,1.23,1.07s-.73,1.22-1.47,1.22c-3.53,0-7.07-.05-10.61-.09-.66,0-1.25-.26-1.33-1-.11-1,.61-1.3,1.35-1.25,2.16.13,2.29-1.22,2.52-2.89.74-5.27-.13-10.08-3.59-14.26-2.58-3.12-3.8-7.55-8.41-8.74a1.22,1.22,0,0,1-.69-.87c-.09-.63.49-.9,1-.92,1.62-.06,3.24,0,4.86,0Z" transform="translate(-20.13 -18.85)"/><path class="cls-1" d="M396.94,92.44c-.81,0-1.62,0-2.43,0s-1.54,0-1.83-.76.45-1.21,1.09-1.54c1.14-.6.91-1.7.92-2.69,0-4,0-8.1.05-12.15,0-1.4-.15-2.61-1.53-3.37-.5-.27-1.2-.68-.76-1.38a1.5,1.5,0,0,1,1.32-.43c2.53.63,5,0,7.56.07,3.15.13,5.92,1.19,7.15,4.23,1.14,2.78-.15,5.12-2.44,6.89-1,.75-1.24,1.46-.35,2.5,2.26,2.63,3.82,6.09,7.88,6.55.53.06,1,.32.95,1-.1.9-.83,1.12-1.55,1.11-3.18,0-6-.94-8-3.64-1-1.39-2-2.8-2.9-4.27a2.18,2.18,0,0,0-2.62-1c-1,.24-1,1.23-1,2,.21,1.84-.9,4.25,2.05,5a1.15,1.15,0,0,1,.51,1,1.08,1.08,0,0,1-1.12.84c-1,0-2,0-3,0Zm1.55-15.7c.39,1.85-1.11,4.53,2.2,4.82,2,.18,4.16-2.46,4.14-4.83a4,4,0,0,0-4.16-4.25C397.37,72.64,398.88,75.2,398.49,76.74Z" transform="translate(-20.13 -18.85)"/><path class="cls-1" d="M458.44,70.51a42.67,42.67,0,0,1,8.15-.07c6,.48,10.74,4.79,10.87,10.13.15,6-4.13,10.59-10.14,11.63-3.66.63-7.26-.53-10.86.23a1.15,1.15,0,0,1-1.3-.6c-.36-.76.26-1.16.77-1.39,1.4-.61,1.46-1.78,1.46-3,0-3.84,0-7.68,0-11.53a5.79,5.79,0,0,0-.5-3c-.43-.76-1.71-1.32-1.21-2.25C456.3,69.52,457.51,70.7,458.44,70.51Zm2.72,10.65h.09c0,2.22,0,4.44,0,6.66a2.06,2.06,0,0,0,1.3,2.17c2,.79,7.16-.13,8.58-1.68,2.78-3,2.67-6.69,1.59-10.25s-3.82-5.29-7.5-5.55c-3.45-.25-3.95.15-4.07,3.5C461.11,77.72,461.16,79.44,461.16,81.16Z" transform="translate(-20.13 -18.85)"/><path class="cls-1" d="M557.2,70.46a51.43,51.43,0,0,1,7.2-.11c5.22.35,9.68,3.66,10.52,8,1.09,5.62-1.24,10.57-6.14,13-2.15,1-4.53.86-6.83,1.1s-4.41-.46-6.63.06a1.52,1.52,0,0,1-1.82-.79c-.31-.71.17-1.14.73-1.44,1.1-.57,1.12-1.6,1.11-2.62q0-6.08,0-12.14a3.76,3.76,0,0,0-.75-2.86c-.54-.55-1.59-.94-1.12-1.89s1.62-.39,2.47-.39C556.22,70.36,556.52,70.4,557.2,70.46Zm2.07,10.59h0c0,2.23,0,4.46,0,6.69,0,.91.09,1.81,1.15,2.27,2.31,1,7.52-.26,9.22-2.35,2.55-3.12,2.14-6.74,1-10.08-1.27-3.59-4.31-5.11-8.12-5.14-2.19,0-3.48.63-3.27,3.14C559.39,77.39,559.27,79.23,559.27,81.05Z" transform="translate(-20.13 -18.85)"/><path class="cls-1" d="M358.45,81.31c-.41-5.42,5.87-11.6,11.86-11.37,7.17.28,11.78,4.81,11.64,11.58-.12,6.52-5.2,11.23-11.92,11.07C363.08,92.41,358.34,87.8,358.45,81.31Zm19.45.56c-.18-5.49-2.59-8.91-6.64-9.43-6-.77-9.62,3.08-8.61,9.91.71,4.8,2.88,8.53,9.41,7.87C376,89.82,378.07,87,377.9,81.87Z" transform="translate(-20.13 -18.85)"/><path class="cls-1" d="M592.41,92.42a18,18,0,0,0-4.75,0c-.69,0-1.52,0-1.81-.78s.41-1.06.91-1.36c1.29-.76,1.17-2,1.18-3.23,0-3.84,0-7.68,0-11.52,0-1.36-.14-2.63-1.46-3.44a1.12,1.12,0,0,1-.61-1.27c.24-.73.93-.71,1.52-.69,3.44.07,6.87.22,10.3.26,2,0,2.6,1.19,2.54,2.94a1.53,1.53,0,0,1-.81,1.52c-.69.27-1.18-.25-1.44-.8a2.41,2.41,0,0,0-2.73-1.45c-1.17.15-3.08-.9-3.35.93-.3,2-.82,4.46.59,6.14,1.11,1.3,2.8.24,4.14-.51.64-.36,1.11-1.42,2.06-.71.68.5.36,1.28.31,2s0,1.21,0,1.81c-.07,1.9-.9,2.15-2.25,1a3.91,3.91,0,0,0-2.44-1.06c-1.58-.1-2.58.37-2.47,2.16,0,.81.09,1.62.15,2.42.09,1.23-.57,2.88,1.31,3.24,1.65.33,3.4.6,4.88-.71.6-.53.56-2,1.84-1.51.6.22.48,1,.46,1.64,0,1.26-.18,2.46-1.66,2.88C596.72,92.87,594.6,92.28,592.41,92.42Z" transform="translate(-20.13 -18.85)"/><path class="cls-1" d="M436.05,92.5c-3,0-5.61-.66-8.24-.11-.61.13-1.3,0-1.48-.7-.14-.58.33-.92.83-1.1,1.37-.48,1.3-1.62,1.29-2.75,0-4.25,0-8.51,0-12.76,0-1.14,0-2.21-1.11-3-.48-.33-1.06-.8-.75-1.49s1-.49,1.6-.49a.73.73,0,0,1,.3,0c1.78.78,4-.82,5.27.26,1.71,1.48-1.41,2.45-1.25,4.3.34,3.92.08,7.89.13,11.84,0,1.33-.47,3.13,1.54,3.43s4,.57,5.5-1.5c.64-.9.57-3.2,1.86-2.52,1.61.84.61,2.82.07,4.35C440.49,93.5,437.81,92.25,436.05,92.5Z" transform="translate(-20.13 -18.85)"/><path class="cls-1" d="M298,55.53V22.73c0-.81,0-1.62,0-2.43,0-.53.32-1,.9-1a1,1,0,0,1,1,1,18.69,18.69,0,0,1,.08,2.12V89.48a12.8,12.8,0,0,1,0,1.52c-.08.61-.23,1.35-.93,1.38s-.89-.72-.94-1.32c-.07-.8-.06-1.61-.07-2.42V55.53Z" transform="translate(-20.13 -18.85)"/><path class="cls-1" d="M532.21,81.22c0-1.82,0-3.65,0-5.47,0-1.59-.08-3-1.74-3.88-.44-.22-.93-.54-.67-1.17a1.07,1.07,0,0,1,1.29-.55,14.32,14.32,0,0,0,5.42,0,1.67,1.67,0,0,1,1.88.69c.47.93-.34,1.24-.94,1.58-1.42.8-1.3,2.21-1.32,3.5-.07,3.54-.08,7.09,0,10.64,0,1.58-.25,3.36,1.92,4a.79.79,0,0,1,.58,1,1.06,1.06,0,0,1-1.09.87c-2.22.05-4.44.13-6.66.05-.75,0-1.54-1-.77-1.43,3.56-1.94,1.75-5.2,2.19-7.89a12.41,12.41,0,0,0,0-1.83Z" transform="translate(-20.13 -18.85)"/></svg>